<svg width="1920" height="1200" viewBox="0 0 1920 1200" fill="none" xmlns="http://www.w3.org/2000/svg">
<g clip-path="url(#clip0_26_7)">
<rect width="1920" height="1200" fill="url(#paint0_linear_26_7)"/>
<path d="M1489.42 163.819C1321.36 143.384 1187.98 34.9906 1123.05 -37.4755C1112.1 -49.688 1121.16 -68 1137.56 -68H1806C1817.05 -68 1826 -59.0457 1826 -48V1308C1826 1319.05 1817.05 1328 1806 1328H1162.46C1151.27 1328 1142.13 1318.76 1144.3 1307.78C1161.14 1222.54 1269.18 1141.91 1326.24 1109.65C1327.16 1109.13 1327.96 1108.59 1328.79 1107.93C1376.11 1069.83 1467.9 955.194 1465.76 792.68C1463.61 628.78 1666.35 502.197 1685.18 411.752C1700.77 336.851 1683.41 187.408 1489.42 163.819Z" fill="#ECB980"/>
<path d="M1526.42 188.819C1358.36 168.384 1224.98 59.9906 1160.05 -12.4755C1149.1 -24.688 1158.16 -43 1174.56 -43H1843C1854.05 -43 1863 -34.0457 1863 -23V1333C1863 1344.05 1854.05 1353 1843 1353H1199.46C1188.27 1353 1179.13 1343.76 1181.3 1332.78C1198.14 1247.54 1306.18 1166.91 1363.24 1134.65C1364.16 1134.13 1364.96 1133.59 1365.79 1132.93C1413.11 1094.83 1504.9 980.194 1502.76 817.68C1500.61 653.78 1703.35 527.197 1722.18 436.752C1737.77 361.851 1720.41 212.408 1526.42 188.819Z" fill="#F0D0AB"/>
<path d="M1583.42 163.819C1415.36 143.384 1281.98 34.9906 1217.05 -37.4755C1206.1 -49.688 1215.16 -68 1231.56 -68H1900C1911.05 -68 1920 -59.0457 1920 -48V1308C1920 1319.05 1911.05 1328 1900 1328H1256.46C1245.27 1328 1236.13 1318.76 1238.3 1307.78C1255.14 1222.54 1363.18 1141.91 1420.24 1109.65C1421.16 1109.13 1421.96 1108.59 1422.79 1107.93C1470.11 1069.83 1561.9 955.194 1559.76 792.68C1557.61 628.78 1760.35 502.197 1779.18 411.752C1794.77 336.851 1777.41 187.408 1583.42 163.819Z" fill="#F5E6D5"/>
<path d="M1489.42 163.819C1321.36 143.384 1187.98 34.9906 1123.05 -37.4755C1112.1 -49.688 1121.16 -68 1137.56 -68H1806C1817.05 -68 1826 -59.0457 1826 -48V1308C1826 1319.05 1817.05 1328 1806 1328H1162.46C1151.27 1328 1142.13 1318.76 1144.3 1307.78C1161.14 1222.54 1269.18 1141.91 1326.24 1109.65C1327.16 1109.13 1327.96 1108.59 1328.79 1107.93C1376.11 1069.83 1467.9 955.194 1465.76 792.68C1463.61 628.78 1666.35 502.197 1685.18 411.752C1700.77 336.851 1683.41 187.408 1489.42 163.819Z" fill="#FE8153"/>
<path d="M1526.42 188.819C1358.36 168.384 1224.98 59.9906 1160.05 -12.4755C1149.1 -24.688 1158.16 -43 1174.56 -43H1843C1854.05 -43 1863 -34.0457 1863 -23V1333C1863 1344.05 1854.05 1353 1843 1353H1199.46C1188.27 1353 1179.13 1343.76 1181.3 1332.78C1198.14 1247.54 1306.18 1166.91 1363.24 1134.65C1364.16 1134.13 1364.96 1133.59 1365.79 1132.93C1413.11 1094.83 1504.9 980.194 1502.76 817.68C1500.61 653.78 1703.35 527.197 1722.18 436.752C1737.77 361.851 1720.41 212.408 1526.42 188.819Z" fill="#FA926D"/>
<path d="M1583.42 163.819C1415.36 143.384 1281.98 34.9906 1217.05 -37.4755C1206.1 -49.688 1215.16 -68 1231.56 -68H1900C1911.05 -68 1920 -59.0457 1920 -48V1308C1920 1319.05 1911.05 1328 1900 1328H1256.46C1245.27 1328 1236.13 1318.76 1238.3 1307.78C1255.14 1222.54 1363.18 1141.91 1420.24 1109.65C1421.16 1109.13 1421.96 1108.59 1422.79 1107.93C1470.11 1069.83 1561.9 955.194 1559.76 792.68C1557.61 628.78 1760.35 502.197 1779.18 411.752C1794.77 336.851 1777.41 187.408 1583.42 163.819Z" fill="#FDA786"/>
<path d="M798.526 1450.12C1020.8 1369.6 1267.81 1430.77 1392.4 1482.59C1407.6 1488.91 1408.34 1508.54 1394.07 1515.92L586.997 1933.16C577.185 1938.24 564.716 1934.62 559.147 1925.08L-429.916 231.072C-435.485 221.534 -432.046 209.689 -422.234 204.616L348.382 -193.78C358.313 -198.914 371.036 -195.159 375.297 -184.906C423.619 -68.6272 351.893 103.637 306.915 179.933C306.377 180.845 305.955 181.707 305.585 182.697C277.253 258.371 251.531 456.682 371.79 657.036C492.817 858.669 345.261 1139 388.446 1262.47C424.209 1364.72 552.723 1539.17 798.526 1450.12Z" fill="#FE8153"/>
<path d="M757.526 1450.12C979.801 1369.6 1226.81 1430.77 1351.4 1482.59C1366.6 1488.91 1367.34 1508.54 1353.07 1515.92L545.997 1933.16C536.185 1938.24 523.716 1934.62 518.147 1925.08L-470.916 231.072C-476.485 221.534 -473.046 209.689 -463.234 204.616L307.382 -193.78C317.313 -198.914 330.036 -195.159 334.297 -184.906C382.619 -68.6272 310.893 103.637 265.915 179.933C265.377 180.845 264.955 181.707 264.585 182.697C236.253 258.371 210.531 456.682 330.79 657.036C451.817 858.669 304.261 1139 347.446 1262.47C383.209 1364.72 511.723 1539.17 757.526 1450.12Z" fill="#FA926D"/>
<path d="M726.417 1522.73C980.881 1426.41 1254.94 1478.26 1391.96 1526.52C1407.99 1532.17 1409.38 1552.56 1394.65 1560.17L457.994 2044.41C448.182 2049.48 435.713 2045.86 430.144 2036.32L-583.818 299.67C-589.388 290.131 -585.948 278.286 -576.136 273.214L318.45 -189.272C328.396 -194.414 341.146 -190.641 345.267 -180.321C393.281 -60.0809 302.349 125.834 247.33 208.599C246.767 209.445 246.317 210.248 245.904 211.172C209.659 292.285 169.102 502.92 292.755 708.218C417.095 914.656 235.035 1217.86 276.419 1345.86C310.691 1451.85 445.019 1629.25 726.417 1522.73Z" fill="#FDA786"/>
</g>
<defs>
<linearGradient id="paint0_linear_26_7" x1="1603.5" y1="216.5" x2="407" y2="1200" gradientUnits="userSpaceOnUse">
<stop stop-color="white"/>
<stop offset="0.478463" stop-color="white" stop-opacity="0.5"/>
<stop offset="1" stop-color="#C2C2C2" stop-opacity="0"/>
</linearGradient>
<clipPath id="clip0_26_7">
<rect width="1920" height="1200" fill="white"/>
</clipPath>
</defs>
</svg>
