<svg width="467" height="467" viewBox="0 0 467 467" fill="none" xmlns="http://www.w3.org/2000/svg">
<path fill-rule="evenodd" clip-rule="evenodd" d="M233.5 0C282.219 0 327.458 14.9375 364.891 40.4688C391.484 32.0417 426.745 32.1146 453.182 39.5417C427.359 40.4688 403.677 45.2604 381.797 53.1406V53.1458C304.448 81.0156 249.599 147.484 202.125 218.208C159.177 282.177 111.563 339.438 55.4531 384.531C20.8802 343.813 0 291.089 0 233.5C0 104.563 104.563 0 233.5 0ZM79.8177 409.286C57.4115 416.172 32.9271 419.875 5.91667 419.63C38.4948 428.24 69.8333 429.344 100.313 425.302C93.1771 420.339 86.3385 414.99 79.8177 409.286ZM405.161 75.2448C443.542 116.854 467 172.438 467 233.5C467 362.432 362.438 467 233.5 467C174.656 467 120.891 445.214 79.8281 409.276C176.328 379.615 234.406 290.99 290.401 204.938C326.802 149.005 365.385 108.031 405.161 75.2448ZM188.74 176.078V87.1615H114.76V276.875C135.74 251.948 155.083 225.599 173.115 198.74C178.24 191.104 183.443 183.536 188.74 176.078ZM267.849 300.031L308.599 366.313L397.49 365.641L311.5 236.531C297.271 258.229 282.88 279.63 267.849 300.031Z" fill="#F97E4E"/>
</svg>
