<svg width="120" height="45" viewBox="0 0 120 45" fill="none" xmlns="http://www.w3.org/2000/svg">
<path d="M52.79 24.75L60.41 33H55.79L49.67 25.89V33H46.25V10.8H49.67V23.7L55.67 16.47H60.41L52.79 24.75ZM58.7213 24.66C58.7213 23 59.0613 21.53 59.7413 20.25C60.4413 18.97 61.3813 17.98 62.5613 17.28C63.7613 16.56 65.0813 16.2 66.5213 16.2C67.8213 16.2 68.9513 16.46 69.9113 16.98C70.8913 17.48 71.6713 18.11 72.2513 18.87V16.47H75.7013V33H72.2513V30.54C71.6713 31.32 70.8813 31.97 69.8813 32.49C68.8813 33.01 67.7413 33.27 66.4613 33.27C65.0413 33.27 63.7413 32.91 62.5613 32.19C61.3813 31.45 60.4413 30.43 59.7413 29.13C59.0613 27.81 58.7213 26.32 58.7213 24.66ZM72.2513 24.72C72.2513 23.58 72.0113 22.59 71.5313 21.75C71.0713 20.91 70.4613 20.27 69.7013 19.83C68.9413 19.39 68.1213 19.17 67.2413 19.17C66.3613 19.17 65.5413 19.39 64.7813 19.83C64.0213 20.25 63.4013 20.88 62.9213 21.72C62.4613 22.54 62.2313 23.52 62.2313 24.66C62.2313 25.8 62.4613 26.8 62.9213 27.66C63.4013 28.52 64.0213 29.18 64.7813 29.64C65.5613 30.08 66.3813 30.3 67.2413 30.3C68.1213 30.3 68.9413 30.08 69.7013 29.64C70.4613 29.2 71.0713 28.56 71.5313 27.72C72.0113 26.86 72.2513 25.86 72.2513 24.72ZM80.6134 18.93C81.1934 18.13 81.9834 17.48 82.9834 16.98C84.0034 16.46 85.1334 16.2 86.3734 16.2C87.8334 16.2 89.1534 16.55 90.3334 17.25C91.5134 17.95 92.4434 18.95 93.1234 20.25C93.8034 21.53 94.1434 23 94.1434 24.66C94.1434 26.32 93.8034 27.81 93.1234 29.13C92.4434 30.43 91.5034 31.45 90.3034 32.19C89.1234 32.91 87.8134 33.27 86.3734 33.27C85.0934 33.27 83.9534 33.02 82.9534 32.52C81.9734 32.02 81.1934 31.38 80.6134 30.6V33H77.1934V10.8H80.6134V18.93ZM90.6634 24.66C90.6634 23.52 90.4234 22.54 89.9434 21.72C89.4834 20.88 88.8634 20.25 88.0834 19.83C87.3234 19.39 86.5034 19.17 85.6234 19.17C84.7634 19.17 83.9434 19.39 83.1634 19.83C82.4034 20.27 81.7834 20.91 81.3034 21.75C80.8434 22.59 80.6134 23.58 80.6134 24.72C80.6134 25.86 80.8434 26.86 81.3034 27.72C81.7834 28.56 82.4034 29.2 83.1634 29.64C83.9434 30.08 84.7634 30.3 85.6234 30.3C86.5034 30.3 87.3234 30.08 88.0834 29.64C88.8634 29.18 89.4834 28.52 89.9434 27.66C90.4234 26.8 90.6634 25.8 90.6634 24.66ZM109.675 24.33C109.675 24.95 109.635 25.51 109.555 26.01H96.9254C97.0254 27.33 97.5154 28.39 98.3954 29.19C99.2754 29.99 100.355 30.39 101.635 30.39C103.475 30.39 104.775 29.62 105.535 28.08H109.225C108.725 29.6 107.815 30.85 106.495 31.83C105.195 32.79 103.575 33.27 101.635 33.27C100.055 33.27 98.6354 32.92 97.3754 32.22C96.1354 31.5 95.1554 30.5 94.4354 29.22C93.7354 27.92 93.3854 26.42 93.3854 24.72C93.3854 23.02 93.7254 21.53 94.4054 20.25C95.1054 18.95 96.0754 17.95 97.3154 17.25C98.5754 16.55 100.015 16.2 101.635 16.2C103.195 16.2 104.585 16.54 105.805 17.22C107.025 17.9 107.975 18.86 108.655 20.1C109.335 21.32 109.675 22.73 109.675 24.33ZM106.105 23.25C106.085 21.99 105.635 20.98 104.755 20.22C103.875 19.46 102.785 19.08 101.485 19.08C100.305 19.08 99.2954 19.46 98.4554 20.22C97.6154 20.96 97.1154 21.97 96.9554 23.25H106.105ZM113.461 18.87C113.961 18.03 114.621 17.38 115.441 16.92C116.281 16.44 117.271 16.2 118.411 16.2V19.74H117.541C116.201 19.74 115.181 20.08 114.481 20.76C113.801 21.44 113.461 22.62 113.461 24.3V33H110.041V16.47H113.461V18.87Z" fill="black"/>
<path fill-rule="evenodd" clip-rule="evenodd" d="M20 2C24.1729 2 28.0478 3.27944 31.254 5.46627C33.5319 4.74447 36.552 4.75071 38.8165 5.38687C36.6047 5.46627 34.5762 5.8767 32.7021 6.55166V6.55211C26.0769 8.93924 21.3789 14.6325 17.3126 20.6902C13.634 26.1693 9.55567 31.0739 4.74973 34.9363C1.78845 31.4486 0 26.9326 0 22C0 10.9561 8.9561 2 20 2ZM6.83663 37.0567C4.91747 37.6464 2.82031 37.9636 0.506781 37.9426C3.2972 38.68 5.98144 38.7746 8.59208 38.4284C7.98091 38.0033 7.39516 37.5451 6.83663 37.0567ZM34.7033 8.44495C37.9907 12.0089 40 16.7698 40 22C40 33.0435 31.0439 42 20 42C14.9598 42 10.3547 40.1339 6.83753 37.0558C15.1031 34.5152 20.0776 26.9242 24.8738 19.5535C27.9916 14.7628 31.2964 11.2532 34.7033 8.44495ZM16.1661 17.0816V9.46565H9.82959V25.7152C11.6265 23.5801 13.2834 21.3233 14.8278 19.0227C15.2668 18.3687 15.7124 17.7205 16.1661 17.0816ZM22.9421 27.6986L26.4325 33.3758L34.0462 33.3183L26.6809 22.2596C25.4622 24.1181 24.2296 25.9512 22.9421 27.6986Z" fill="#F97E4E"/>
</svg>
