<svg width="100" height="100" viewBox="0 0 100 100" fill="none" xmlns="http://www.w3.org/2000/svg">
<g clip-path="url(#clip0_6_31)">
<path d="M31.459 90.6251C69.1855 90.6251 89.8262 59.3614 89.8262 32.2579C89.8262 31.379 89.8066 30.4805 89.7676 29.6016C93.7828 26.6979 97.2479 23.1012 100 18.9805C96.2605 20.6443 92.2902 21.7309 88.2246 22.2032C92.5053 19.6372 95.7105 15.6063 97.2461 10.8575C93.219 13.2441 88.8149 14.9277 84.2227 15.836C81.1285 12.5483 77.0374 10.3714 72.582 9.642C68.1266 8.91256 63.555 9.67117 59.5739 11.8005C55.5929 13.9299 52.4242 17.3114 50.5577 21.4223C48.6912 25.5331 48.231 30.1444 49.248 34.543C41.0937 34.1338 33.1164 32.0156 25.8333 28.3255C18.5501 24.6355 12.1237 19.4561 6.9707 13.1231C4.35166 17.6386 3.55024 22.982 4.72929 28.0672C5.90835 33.1524 8.97943 37.5978 13.3184 40.5001C10.0609 40.3966 6.8749 39.5196 4.02344 37.9415V38.1954C4.02052 42.9341 5.65874 47.5276 8.65962 51.195C11.6605 54.8624 15.8388 57.3775 20.4844 58.3126C17.4669 59.1382 14.2999 59.2585 11.2285 58.6641C12.5394 62.7394 15.0899 66.3038 18.524 68.8598C21.9582 71.4159 26.1047 72.8359 30.3848 72.9219C23.1184 78.6298 14.1424 81.7257 4.90234 81.711C3.2637 81.7085 1.62666 81.6081 0 81.4102C9.3869 87.4324 20.3064 90.6309 31.459 90.6251Z" fill="#F97E4E"/>
</g>
<defs>
<clipPath id="clip0_6_31">
<rect width="100" height="100" fill="white"/>
</clipPath>
</defs>
</svg>
